<svg width="160" height="46" viewBox="0 0 160 46" fill="none" xmlns="http://www.w3.org/2000/svg">
<g clip-path="url(#clip0_14670_56238)">
<path d="M14.9437 14.493L14.5577 14.4226L14.9296 14.293C16.3352 13.8001 17.4704 13.0198 18.3042 11.9775C19.1352 10.9409 19.5549 9.62259 19.5549 8.06203C19.5549 6.76343 19.2113 5.56907 18.5352 4.51555C17.8591 3.46202 16.8422 2.61132 15.5155 1.98597C14.1831 1.3578 12.5634 1.03949 10.7042 1.03949H0.261963V28.493H11.2225C13.031 28.493 14.6366 28.1691 15.9944 27.5268C17.3493 26.8874 18.4 26.0029 19.1155 24.8986C19.831 23.7916 20.1944 22.5324 20.1944 21.155C20.1944 19.5409 19.6789 18.0761 18.6648 16.8029C17.6507 15.5296 16.4 14.7522 14.9465 14.493H14.9437ZM4.58872 4.53526H10.3042C11.8056 4.53526 13 4.89864 13.8535 5.61414C14.7098 6.33526 15.1437 7.34653 15.1437 8.61977C15.1437 9.89301 14.7098 10.9324 13.8507 11.6254C13 12.3155 11.8056 12.6648 10.3042 12.6648H4.58872V4.53808V4.53526ZM14.5098 23.862C13.6197 24.617 12.3775 25.0001 10.8225 25.0001H4.58872V16.155H10.662C12.2197 16.155 13.4873 16.5662 14.431 17.3747C15.3803 18.1888 15.8591 19.2986 15.8591 20.6761C15.8591 22.0536 15.4056 23.0986 14.5098 23.8592V23.862Z" fill="white"/>
<path d="M98.1408 11.1718C97.431 10.2423 96.4817 9.4648 95.2958 8.83945C94.107 8.21409 92.7183 7.90424 91.1296 7.90424C89.3662 7.90424 87.7577 8.33804 86.3014 9.20846C84.8451 10.0789 83.6958 11.2958 82.8507 12.862C82.0056 14.4282 81.5831 16.2282 81.5831 18.2592C81.5831 20.2902 82.0056 22.1099 82.8507 23.7127C83.6958 25.3155 84.8394 26.5634 86.2845 27.4592C87.7296 28.3521 89.3183 28.8 91.0563 28.8C92.6225 28.8 94.0169 28.4817 95.2423 27.8451C96.4648 27.2085 97.4338 26.4141 98.1437 25.4592V28.4704H102.366V8.23945H98.1437V11.1775L98.1408 11.1718ZM97.2789 21.9859C96.7042 23.0254 95.9521 23.8169 95.0197 24.3549C94.0901 24.893 93.0845 25.1634 92.0085 25.1634C90.9324 25.1634 89.9578 24.8873 89.0169 24.338C88.0732 23.7887 87.3155 22.9859 86.7408 21.9324C86.1662 20.8789 85.8789 19.6564 85.8789 18.262C85.8789 16.8676 86.1662 15.662 86.7408 14.6451C87.3155 13.631 88.0676 12.8592 89 12.3324C89.9296 11.8056 90.9324 11.5437 92.0113 11.5437C93.0901 11.5437 94.0901 11.8141 95.0225 12.3521C95.9521 12.8902 96.7042 13.6733 97.2817 14.7014C97.8563 15.7296 98.1437 16.9409 98.1437 18.3352C98.1437 19.7296 97.8563 20.9493 97.2817 21.9887L97.2789 21.9859Z" fill="white"/>
<path d="M108.389 7.79723V8.23385H105.868V11.6479H108.389V28.4648H112.611V11.6479H116.059V8.23385H112.611V7.79723C112.611 6.62258 112.868 5.79723 113.383 5.31836C113.899 4.8423 114.792 4.60286 116.065 4.60286V1.11554C113.42 1.11554 111.482 1.64793 110.245 2.71272C109.008 3.77751 108.392 5.47329 108.392 7.79723H108.389Z" fill="white"/>
<path d="M158.89 11.831C158.18 10.5352 157.194 9.55495 155.935 8.89298C154.673 8.231 153.248 7.90143 151.656 7.90143C150.456 7.90143 149.324 8.13523 148.259 8.60002C147.194 9.06481 146.318 9.71551 145.634 10.5465V8.23382H141.448V28.4648H145.634V17.1549C145.634 15.3437 146.093 13.9549 147.011 12.9888C147.93 12.0226 149.172 11.538 150.738 11.538C152.304 11.538 153.541 12.0226 154.445 12.9888C155.349 13.9549 155.803 15.3437 155.803 17.1549V28.4648H159.952V16.5324C159.952 14.6958 159.597 13.1296 158.887 11.8338L158.89 11.831Z" fill="white"/>
<path d="M50.2817 11.4902V8.23383H46.0958V28.4648H50.2817V18.2817C50.3296 17.0451 50.6141 15.9606 51.1352 15.0254C51.7099 13.9972 52.462 13.2141 53.3944 12.6761C54.3239 12.1381 55.3296 11.8676 56.4056 11.8676C56.4648 11.8676 56.5239 11.8761 56.5831 11.8789V8.25636C55.2817 8.33523 54.1268 8.63946 53.1183 9.16904C51.938 9.79157 50.9916 10.5634 50.2817 11.4873V11.4902Z" fill="white"/>
<path d="M74.5437 8.89579C73.2817 8.23381 71.8563 7.90424 70.2676 7.90424C69.0676 7.90424 67.9352 8.13804 66.8704 8.60283C65.8056 9.06762 64.9296 9.71832 64.2451 10.5493V8.23663H60.0592V28.4676H64.2451V17.1578C64.2451 15.3465 64.7042 13.9578 65.6225 12.9916C66.5408 12.0254 67.7831 11.5409 69.3493 11.5409C70.9155 11.5409 72.1521 12.0254 73.0563 12.9916C73.9606 13.9578 74.4141 15.3465 74.4141 17.1578V28.4676H78.5634V16.5352C78.5634 14.6986 78.2085 13.1324 77.4986 11.8366C76.7887 10.5409 75.8028 9.56057 74.5437 8.8986V8.89579Z" fill="white"/>
<path d="M128.031 7.8479C122.256 7.8479 117.558 12.5465 117.558 18.3211C117.558 24.0958 122.256 28.7944 128.031 28.7944C133.806 28.7944 138.504 24.0958 138.504 18.3211C138.504 12.5465 133.806 7.8479 128.031 7.8479ZM128.031 24.9521C124.375 24.9521 121.4 21.9775 121.4 18.3211C121.4 14.6648 124.375 11.6902 128.031 11.6902C131.687 11.6902 134.662 14.6648 134.662 18.3211C134.662 21.9775 131.687 24.9521 128.031 24.9521Z" fill="white"/>
<path d="M37.7859 9.15212C36.293 8.32114 34.5915 7.90424 32.6817 7.90424C30.7718 7.90424 28.9437 8.33241 27.4141 9.18874C25.8845 10.0451 24.6958 11.262 23.8535 12.8423C23.0084 14.4197 22.5859 16.2507 22.5859 18.3324C22.5859 20.4141 23.0197 22.2423 23.8901 23.8225C24.7577 25.4 25.9577 26.6254 27.4873 27.493C29.0169 28.3634 30.7493 28.7972 32.6817 28.7972C35.0563 28.7972 37.0451 28.2028 38.6479 27.0169C40.2507 25.831 41.3577 24.3071 41.9718 22.4451H37.4563C36.5268 24.3296 34.9352 25.2733 32.6817 25.2733C31.1155 25.2733 29.7944 24.7831 28.7155 23.8056C27.6394 22.8282 27.0394 21.5296 26.9155 19.9127H42.3746C42.4732 19.3014 42.5211 18.6169 42.5211 17.8563C42.5211 15.8986 42.1042 14.1662 41.2732 12.662C40.4394 11.1578 39.2789 9.98874 37.7859 9.15494V9.15212ZM26.9549 16.5324C27.1493 14.9662 27.7634 13.724 28.7915 12.8056C29.8197 11.8873 31.0563 11.4282 32.4986 11.4282C34.0901 11.4282 35.4225 11.893 36.5014 12.8225C37.5775 13.7521 38.1296 14.9887 38.1521 16.5324H26.9521H26.9549Z" fill="white"/>
<path d="M30.9014 38.569V39.4254H29.2V44.9662H28.1521V39.4254H26.4394V38.569H30.9014Z" fill="white"/>
<path d="M37.0394 38.569V44.9634H35.9916V42.1662H32.9831V44.9634H31.9352V38.569H32.9831V41.3099H35.9916V38.569H37.0394Z" fill="white"/>
<path d="M39.662 39.4169V41.293H41.8704V42.1493H39.662V44.1099H42.1465V44.9662H38.6141V38.5606H42.1465V39.4169H39.662Z" fill="white"/>
<path d="M47.1437 44.8028C46.8 44.6536 46.5296 44.4395 46.3324 44.1634C46.1352 43.8874 46.0366 43.5662 46.0366 43.1972H47.1606C47.1859 43.4733 47.293 43.7014 47.4873 43.8789C47.6817 44.0564 47.9521 44.1465 48.3014 44.1465C48.6507 44.1465 48.9465 44.0592 49.1493 43.8845C49.3521 43.7099 49.4535 43.4845 49.4535 43.2085C49.4535 42.9944 49.3916 42.8198 49.2648 42.6845C49.138 42.5493 48.9831 42.4451 48.7944 42.3719C48.6085 42.2986 48.3493 42.2198 48.0169 42.1324C47.6 42.0226 47.262 41.9099 47 41.7972C46.738 41.6845 46.5155 41.5071 46.3324 41.2676C46.1493 41.0282 46.0563 40.7099 46.0563 40.3099C46.0563 39.9409 46.1493 39.6198 46.3324 39.3437C46.5155 39.0676 46.7747 38.8564 47.1042 38.7099C47.4366 38.5634 47.8197 38.4902 48.2535 38.4902C48.8732 38.4902 49.3803 38.6451 49.7775 38.955C50.1718 39.2648 50.3916 39.6902 50.4366 40.2282H49.2761C49.2563 39.9944 49.1465 39.7944 48.9437 39.631C48.7408 39.4648 48.4732 39.3831 48.1437 39.3831C47.8423 39.3831 47.5972 39.4592 47.4085 39.6141C47.2169 39.7662 47.1239 39.9888 47.1239 40.2761C47.1239 40.4733 47.1831 40.6338 47.3042 40.7578C47.4225 40.8845 47.5747 40.9831 47.7606 41.0564C47.9437 41.1296 48.1972 41.2085 48.5155 41.2958C48.938 41.4113 49.2845 41.5296 49.5493 41.6451C49.8169 41.7606 50.0423 41.9409 50.231 42.1831C50.4169 42.4254 50.5127 42.7493 50.5127 43.155C50.5127 43.4789 50.4254 43.7859 50.2507 44.0761C50.0761 44.3634 49.8225 44.5972 49.4873 44.7719C49.1521 44.9465 48.7577 45.0338 48.3042 45.0338C47.8761 45.0338 47.4873 44.9578 47.1437 44.8085V44.8028Z" fill="white"/>
<path d="M53.0732 44.6113C52.5718 44.3324 52.1775 43.9437 51.8873 43.4423C51.5972 42.9437 51.4507 42.3803 51.4507 41.755C51.4507 41.1296 51.5972 40.5691 51.8873 40.0705C52.1775 39.5747 52.5746 39.186 53.0732 38.9071C53.5718 38.6282 54.1211 38.4874 54.7155 38.4874C55.3099 38.4874 55.8676 38.6282 56.3662 38.9071C56.8648 39.186 57.2591 39.5747 57.5493 40.0705C57.8366 40.5662 57.9831 41.1296 57.9831 41.755C57.9831 42.3803 57.8394 42.9437 57.5493 43.4423C57.262 43.9437 56.8676 44.3324 56.3662 44.6113C55.8648 44.8902 55.3155 45.031 54.7155 45.031C54.1155 45.031 53.5718 44.8902 53.0732 44.6113ZM55.8479 43.8282C56.1803 43.6338 56.4394 43.3578 56.6253 43C56.8113 42.6423 56.907 42.2254 56.907 41.7522C56.907 41.2789 56.8141 40.8648 56.6253 40.5099C56.4394 40.155 56.1803 39.8817 55.8479 39.6902C55.5155 39.5014 55.138 39.4057 54.7155 39.4057C54.293 39.4057 53.9155 39.5014 53.5831 39.6902C53.2507 39.8817 52.9915 40.1522 52.8056 40.5099C52.6197 40.8648 52.5239 41.2789 52.5239 41.7522C52.5239 42.2254 52.6169 42.6395 52.8056 43C52.9915 43.3578 53.2507 43.6338 53.5831 43.8282C53.9155 44.0226 54.293 44.1183 54.7155 44.1183C55.138 44.1183 55.5155 44.0226 55.8479 43.8282Z" fill="white"/>
<path d="M60.2 38.569V42.6451C60.2 43.1296 60.3268 43.4958 60.5831 43.7409C60.8366 43.9859 61.1915 44.1099 61.6451 44.1099C62.0986 44.1099 62.462 43.9859 62.7183 43.7409C62.9746 43.4958 63.1014 43.1296 63.1014 42.6451V38.569H64.1493V42.6282C64.1493 43.1493 64.0366 43.5916 63.8084 43.9521C63.5803 44.3127 63.2789 44.5831 62.8986 44.7606C62.5183 44.938 62.0986 45.0282 61.6366 45.0282C61.1746 45.0282 60.7577 44.938 60.3803 44.7606C60.0028 44.5831 59.7042 44.3127 59.4817 43.9521C59.262 43.5887 59.1493 43.1493 59.1493 42.6282V38.569H60.1972H60.2Z" fill="white"/>
<path d="M70.9493 44.9662H69.9014L66.7437 40.1916V44.9662H65.6958V38.5606H66.7437L69.9014 43.3268V38.5606H70.9493V44.9662Z" fill="white"/>
<path d="M76.4 38.9606C76.9127 39.2225 77.307 39.5944 77.5859 40.0845C77.8648 40.5718 78.0056 41.1409 78.0056 41.7916C78.0056 42.4423 77.8648 43.0056 77.5859 43.4845C77.307 43.9634 76.9098 44.3296 76.4 44.5831C75.8873 44.8366 75.2901 44.9662 74.6113 44.9662H72.5211V38.5718H74.6113C75.2929 38.5718 75.8901 38.7014 76.4 38.9634V38.9606ZM76.3296 43.5014C76.7296 43.0958 76.9267 42.5268 76.9267 41.7887C76.9267 41.0507 76.7267 40.4676 76.3296 40.0507C75.9296 39.6338 75.3577 39.4254 74.6084 39.4254H73.569V44.1099H74.6084C75.3577 44.1099 75.9296 43.907 76.3296 43.5014Z" fill="white"/>
<path d="M82.8479 39.4169V41.293H85.0563V42.1493H82.8479V44.1099H85.3324V44.9662H81.8V38.5606H85.3324V39.4169H82.8479Z" fill="white"/>
<path d="M89.5268 41.7718L91.5155 44.9662H90.338L88.893 42.6479L87.5408 44.9662H86.3718L88.3606 41.7718L86.3634 38.569H87.5408L88.9944 40.9071L90.3549 38.569H91.5239L89.5268 41.7718Z" fill="white"/>
<path d="M96.8338 41.3944C96.6817 41.6817 96.4338 41.9183 96.0986 42.0986C95.7606 42.2789 95.3296 42.369 94.8 42.369H93.6394V44.9634H92.5916V38.569H94.8C95.2901 38.569 95.707 38.6535 96.0479 38.8226C96.3887 38.9916 96.6423 39.2197 96.8113 39.5071C96.9803 39.7944 97.0648 40.1183 97.0648 40.4733C97.0648 40.7972 96.9887 41.1042 96.8338 41.3944ZM95.693 41.2423C95.8901 41.062 95.9859 40.8056 95.9859 40.4733C95.9859 39.7747 95.5916 39.4254 94.8 39.4254H93.6394V41.5155H94.8C95.2 41.5155 95.4958 41.4254 95.693 41.2451V41.2423Z" fill="white"/>
<path d="M99.1155 39.4169V41.293H101.324V42.1493H99.1155V44.1099H101.6V44.9662H98.0676V38.5606H101.6V39.4169H99.1155Z" fill="white"/>
<path d="M106.285 44.9662L104.811 42.4085H104.011V44.9662H102.963V38.5718H105.172C105.662 38.5718 106.079 38.6592 106.42 38.8282C106.761 39 107.014 39.231 107.183 39.5183C107.352 39.8056 107.437 40.1296 107.437 40.4845C107.437 40.9014 107.315 41.2817 107.073 41.6197C106.831 41.9606 106.459 42.1916 105.955 42.3155L107.538 44.9662H106.287H106.285ZM104.011 41.5718H105.172C105.563 41.5718 105.859 41.4732 106.059 41.2761C106.259 41.0789 106.358 40.8169 106.358 40.4845C106.358 40.1521 106.259 39.893 106.065 39.7071C105.868 39.5211 105.572 39.4254 105.172 39.4254H104.011V41.569V41.5718Z" fill="white"/>
<path d="M109.882 38.569V44.9634H108.834V38.569H109.882Z" fill="white"/>
<path d="M112.504 39.4169V41.293H114.713V42.1493H112.504V44.1099H114.989V44.9662H111.456V38.5606H114.989V39.4169H112.504Z" fill="white"/>
<path d="M121.606 44.9662H120.558L117.4 40.1916V44.9662H116.352V38.5606H117.4L120.558 43.3268V38.5606H121.606V44.9662Z" fill="white"/>
<path d="M123.248 40.0705C123.538 39.5747 123.935 39.186 124.434 38.9071C124.932 38.6282 125.482 38.4874 126.076 38.4874C126.758 38.4874 127.363 38.6536 127.893 38.9888C128.423 39.324 128.808 39.7972 129.048 40.4113H127.786C127.62 40.0733 127.392 39.8226 127.096 39.6564C126.8 39.4902 126.462 39.4085 126.073 39.4085C125.651 39.4085 125.273 39.5043 124.941 39.693C124.608 39.8845 124.349 40.155 124.163 40.5127C123.977 40.8676 123.882 41.2817 123.882 41.755C123.882 42.2282 123.975 42.6423 124.163 42.9972C124.349 43.3522 124.608 43.6282 124.941 43.8198C125.273 44.0141 125.651 44.1099 126.073 44.1099C126.459 44.1099 126.8 44.0282 127.096 43.862C127.392 43.6958 127.62 43.4451 127.786 43.1071H129.048C128.808 43.7212 128.423 44.1916 127.893 44.524C127.363 44.8564 126.758 45.0198 126.076 45.0198C125.476 45.0198 124.927 44.8789 124.428 44.6C123.932 44.3212 123.538 43.9324 123.245 43.4367C122.955 42.9409 122.808 42.3775 122.808 41.7522C122.808 41.1268 122.955 40.5662 123.245 40.0676L123.248 40.0705Z" fill="white"/>
<path d="M131.352 39.4169V41.293H133.561V42.1493H131.352V44.1099H133.837V44.9662H130.304V38.5606H133.837V39.4169H131.352Z" fill="white"/>
</g>
<defs>
<clipPath id="clip0_14670_56238">
<rect width="160" height="44.2254" fill="white" transform="translate(0 0.915527)"/>
</clipPath>
</defs>
</svg>
