  <svg xmlns="http://www.w3.org/2000/svg" viewBox="5000 600 1200 1200">
    <defs>
      <style>
        .st20 {
          fill: #034965;
        }
        .dark .st20 {
          fill: #71caca;
          opacity: 0.83;    
        }
        .st15 {
          fill: #71caca;
          opacity: 0.83;
        }
        .dark .st15 {
          fill: #8d8d8d;
          opacity: 0.83;
        }
        .st0 {
          fill: #fff;
        }
        .dark .st0 {
          fill: #fff;
        }
      </style>
    </defs>

    <g transform="translate(360, 250)">
      <path
        class="st20"
        d="M5058.95,780.55c-8.63-32.08-4.56-70.43,10.73-99.7,32.99-63.16,113.9-79.46,179.12-76.95,81.82,3.14,165.44,39.49,216.38,104.92,57.05,73.29,66.04,179.17,35.95,265.28-48.93,140.02-138.73,295.5-285.49,349.09-46.7,17.05-116.27,18.96-145.26-29.54-26.19-43.81-12.67-114.58,5.19-159.24,12.79-31.97,35.54-59.53,48.06-92.18,25.91-67.6,9.69-133.96-26.78-194.26-12.75-21.08-31.38-43.26-37.89-67.43Z"
      ></path>
      <path
        class="st15"
        d="M5376.83,683.65c8.6-31.95,4.54-70.15-10.69-99.3-32.86-62.91-113.44-79.14-178.4-76.64-81.49,3.13-164.78,39.33-215.51,104.5-56.83,73-65.77,178.46-35.8,264.21,48.74,139.46,138.18,294.32,284.34,347.69,46.52,16.99,115.81,18.88,144.68-29.42,26.08-43.63,12.62-114.12-5.17-158.6-12.73-31.84-35.4-59.29-47.87-91.81-25.81-67.33-9.65-133.42,26.68-193.48,12.7-20.99,31.26-43.09,37.73-67.16Z"
      ></path>
      <path
        class="st0"
        d="M5411.73,911.24c.04,43.03-14.29,81.05-39.39,115.56-11.11,15.26-24.03,28.72-38.93,40.05-22.35,17.01-47.38,27.98-75.67,30.82-37.23,3.73-70.8-5.69-99.91-29.02-17.93-14.37-32.05-32.2-39.78-54.35-6.54-18.74-7.63-37.81-3.95-57.35,4.82-25.63,16.23-48.11,33.13-67.48,19.88-22.82,44.63-36.5,75.93-34.02,18.78,1.5,32.88,11.27,41.68,27.88,6.15,11.61,8.74,24.33,8.34,37.51-.44,14.11-15.48,23.56-27.17,17.16-5.65-3.09-8.84-7.85-9.02-14.38-.14-4.9-.59-9.73-1.7-14.55-3.28-14.19-12.38-19.79-26.68-16.76-14.78,3.14-26.13,11.56-35.39,22.89-15.01,18.36-24.52,39.28-24.49,63.32.03,24,10.88,43.29,28.76,58.88,35.05,30.57,84.18,30.54,121.6,8.52,32.18-18.94,52.87-47.01,66.88-80.34,8.65-20.55,12.04-42.54,9.78-65.23-2.79-28.04-10.99-53.91-27.07-77.25-16.48-23.91-39.42-38.96-66.27-48.07-26.85-9.11-53.57-6.33-79.87,3.53-16.94,6.35-32.92,14.42-47.78,24.76-9.41,6.54-19.98,4.61-26.62-4.63-5.65-7.87-3.66-18.18,5.3-24.84,13.24-9.81,27.36-18.22,42.68-24.38,23.99-9.62,48.63-16.68,74.78-15.97,35.15.96,66.42,12.22,93.96,34.65,17.34,14.12,32,30.24,42.92,49.62,16.32,28.93,24,60.22,23.97,93.47Z"
      ></path>
    </g>
  </svg>